<svg version="1.1" id="Layer_1" xmlns="http://www.w3.org/2000/svg" xmlns:xlink="http://www.w3.org/1999/xlink" x="0px" y="0px"
	 width="100%" viewBox="0 0 512 512" enable-background="new 0 0 512 512" xml:space="preserve">
<path fill="#FFF261" opacity="1.000000" stroke="none" 
	d="
M301.000000,1.000001 
	C317.354218,1.000000 333.708466,1.000000 350.200897,1.332687 
	C352.328766,2.146465 354.316101,2.637526 356.308472,3.107155 
	C384.625854,9.781993 409.449890,23.331476 430.936920,42.627460 
	C448.791931,58.661747 464.044250,77.003311 476.448578,97.751678 
	C494.156403,127.370979 506.106171,158.936920 511.075928,193.121048 
	C511.178406,193.825699 512.335144,194.377106 513.000000,195.000000 
	C513.000000,214.020889 513.000000,233.041794 512.663452,252.205383 
	C511.553162,255.093842 510.585480,257.801392 510.035980,260.591309 
	C505.260620,284.837494 496.618347,307.584839 483.544556,328.934387 
	C476.675751,337.789490 470.096130,346.456024 463.080597,355.103333 
	C445.124390,358.956635 427.511597,360.393585 409.734375,356.989044 
	C392.781677,353.742432 376.768555,348.396088 364.715302,335.172791 
	C356.006561,325.618713 351.432495,314.379150 353.947662,301.336456 
	C356.431854,288.454346 359.900635,275.764130 362.483246,262.898560 
	C367.042023,240.188080 363.234619,219.391861 344.983032,203.788879 
	C337.150024,197.092560 327.407593,192.471893 318.156433,187.626511 
	C301.045898,178.664673 286.125275,167.407532 275.529633,150.921158 
	C256.879517,121.902336 249.365021,90.363388 254.115875,56.136902 
	C256.584991,38.348625 264.768951,23.014013 275.953583,8.702456 
	C283.982880,6.563184 291.817596,4.804170 299.619476,2.910085 
	C300.200012,2.769144 300.545319,1.659379 301.000000,1.000001 
z"/>
<path fill="#2840B1" opacity="1.000000" stroke="none" 
	d="
M277.000000,513.000000 
	C256.645782,513.000000 236.291550,513.000000 215.557983,512.583191 
	C213.702942,511.777557 212.240143,511.328278 210.749344,511.010345 
	C204.180344,509.609589 197.603287,508.246735 191.104004,506.546448 
	C194.507690,503.786102 197.808258,501.309692 201.170059,498.919434 
	C221.173752,484.696625 231.520248,465.578766 231.031754,440.781494 
	C230.711655,424.532867 227.032700,409.078186 219.720261,394.676453 
	C212.145111,379.757294 201.319458,367.627441 185.382126,361.335144 
	C177.535370,358.237091 169.263184,356.099426 161.048889,354.072906 
	C141.813293,349.327454 128.570908,338.031006 121.604942,319.395264 
	C113.741867,298.359558 114.725204,277.014282 119.373291,255.588959 
	C120.884903,248.621216 123.101715,241.806473 125.161148,234.632782 
	C150.647476,216.106033 178.632965,204.774887 210.003845,203.889603 
	C222.345398,203.541321 234.762665,205.875366 247.439850,207.163147 
	C260.975891,214.771393 274.452515,221.820511 287.394348,229.743256 
	C300.869141,237.992264 308.918854,250.392303 312.240295,265.902252 
	C315.251648,279.964203 312.534912,293.488464 308.973633,307.010834 
	C306.869080,315.001801 304.659180,323.001587 303.234528,331.126801 
	C300.924805,344.299744 304.846741,356.038330 312.560089,366.753357 
	C304.923553,375.785553 297.462006,384.521057 290.261902,393.467041 
	C285.890930,398.897919 281.357147,404.327240 277.894867,410.332794 
	C270.884766,422.492249 271.986755,434.898468 282.060059,444.638977 
	C288.368317,450.738831 296.652954,454.794800 304.344635,459.977966 
	C310.500061,462.477661 316.214569,465.306763 322.251678,466.952454 
	C338.396759,471.353485 354.680267,475.246674 370.709778,479.601532 
	C359.457916,485.250366 348.633911,491.189545 337.300537,495.904358 
	C318.470856,503.737610 298.876068,509.061188 278.489624,511.138489 
	C277.935608,511.194946 277.494019,512.354736 277.000000,513.000000 
M271.603607,297.400085 
	C271.973663,296.298492 272.431946,295.217957 272.700439,294.092163 
	C276.268127,279.133545 274.357025,265.330231 262.176147,254.920090 
	C249.983673,244.500000 235.920441,243.133377 220.382965,249.131683 
	C204.594894,257.080933 197.477386,271.058899 199.998093,289.165192 
	C202.187271,304.889923 214.934799,317.168365 231.078094,319.101440 
	C249.414230,321.297089 265.183563,312.931427 271.603607,297.400085 
z"/>
<path fill="#FF2AAA" opacity="1.000000" stroke="none" 
	d="
M1.000000,299.000000 
	C1.000000,278.312439 1.000000,257.624878 1.362596,236.768555 
	C2.480489,233.502197 3.466995,230.440475 3.953977,227.301270 
	C7.406957,205.042572 13.667080,183.584579 23.992601,163.595093 
	C31.341274,149.368607 40.055397,135.847443 48.485229,122.069489 
	C59.126987,133.436066 71.213463,142.333054 84.950676,149.083038 
	C80.844597,155.942642 76.896179,162.485123 72.665344,169.216705 
	C57.896938,177.433395 54.252800,185.770233 57.899849,202.096909 
	C57.127937,203.191010 56.498814,204.010056 56.189903,204.935959 
	C50.214935,222.844498 46.654652,241.279678 46.182850,260.101959 
	C45.888699,271.837219 46.712231,283.685211 48.077656,295.360565 
	C51.394489,323.721771 61.448032,349.801514 76.413673,374.031555 
	C87.881104,392.597839 102.335442,408.590485 119.072647,422.486938 
	C135.308685,435.967255 153.251877,446.651337 173.073425,454.412811 
	C169.098099,461.038940 166.006378,468.147247 160.941406,473.325439 
	C154.874908,479.527527 147.123734,484.081757 139.752258,489.193848 
	C115.363205,478.154083 94.167664,463.011597 75.423203,444.651855 
	C65.712013,435.139923 56.969879,424.543091 48.526337,413.854645 
	C35.562584,397.444214 25.823826,379.018829 18.114277,359.655121 
	C10.539742,340.630554 4.643107,321.057922 2.892568,300.469482 
	C2.846693,299.929901 1.656526,299.487640 1.000000,299.000000 
z"/>
<path fill="#000000" opacity="1.000000" stroke="none" 
	d="
M277.468658,513.000000 
	C277.494019,512.354736 277.935608,511.194946 278.489624,511.138489 
	C298.876068,509.061188 318.470856,503.737610 337.300537,495.904358 
	C348.633911,491.189545 359.457916,485.250366 371.059448,479.451904 
	C388.385132,469.337646 403.532440,457.454742 417.381378,443.976898 
	C423.619171,437.906250 429.171722,431.122070 434.925446,424.565338 
	C446.919281,410.897644 456.627289,395.694427 464.839294,379.511383 
	C473.065094,363.300995 479.637054,346.466400 483.833740,328.745819 
	C496.618347,307.584839 505.260620,284.837494 510.035980,260.591309 
	C510.585480,257.801392 511.553162,255.093842 512.663452,252.674042 
	C513.000000,339.590179 513.000000,426.180328 513.000000,513.000000 
	C434.645935,513.000000 356.291626,513.000000 277.468658,513.000000 
z"/>
<path fill="#000000" opacity="1.000000" stroke="none" 
	d="
M1.000000,299.468658 
	C1.656526,299.487640 2.846693,299.929901 2.892568,300.469482 
	C4.643107,321.057922 10.539742,340.630554 18.114277,359.655121 
	C25.823826,379.018829 35.562584,397.444214 48.526337,413.854645 
	C56.969879,424.543091 65.712013,435.139923 75.423203,444.651855 
	C94.167664,463.011597 115.363205,478.154083 139.952148,489.452454 
	C152.126205,494.300018 163.681824,498.927216 175.406906,503.075439 
	C180.432755,504.853546 185.811020,505.635559 191.029144,506.870148 
	C197.603287,508.246735 204.180344,509.609589 210.749344,511.010345 
	C212.240143,511.328278 213.702942,511.777557 215.089325,512.583191 
	C143.739639,513.000000 72.479271,513.000000 1.000000,513.000000 
	C1.000000,441.979248 1.000000,370.958282 1.000000,299.468658 
z"/>
<path fill="#2740B1" opacity="1.000000" stroke="none" 
	d="
M90.000000,1.000000 
	C101.020897,1.000000 112.041786,1.000000 123.392029,1.371866 
	C125.455170,2.516440 127.141335,3.428427 128.930176,4.040186 
	C145.690140,9.771879 158.632355,20.317581 168.325104,35.399399 
	C176.533432,48.674206 181.376831,62.700245 182.138672,78.495819 
	C182.200256,93.147018 179.394653,106.630852 171.903442,119.067337 
	C160.689362,121.869209 149.988983,123.907677 138.576599,122.184105 
	C113.832558,118.447113 94.185539,106.071671 79.153198,86.865303 
	C61.668854,64.526085 58.718479,39.814308 71.052338,13.771070 
	C71.602242,12.609940 71.676537,11.223562 72.168343,9.654341 
	C77.774834,7.224630 83.201546,5.121667 88.574081,2.888371 
	C89.202461,2.627159 89.531952,1.646910 90.000000,1.000000 
z"/>
<path fill="#000000" opacity="1.000000" stroke="none" 
	d="
M513.000000,194.531342 
	C512.335144,194.377106 511.178406,193.825699 511.075928,193.121048 
	C506.106171,158.936920 494.156403,127.370979 476.448578,97.751678 
	C464.044250,77.003311 448.791931,58.661747 430.936920,42.627460 
	C409.449890,23.331476 384.625854,9.781993 356.308472,3.107155 
	C354.316101,2.637526 352.328766,2.146465 350.669556,1.332687 
	C404.933563,1.000000 458.867157,1.000000 513.000000,1.000000 
	C513.000000,65.354088 513.000000,129.708389 513.000000,194.531342 
z"/>
<path fill="#000000" opacity="1.000000" stroke="none" 
	d="
M89.531342,1.000000 
	C89.531952,1.646910 89.202461,2.627159 88.574081,2.888371 
	C83.201546,5.121667 77.774834,7.224630 71.813202,9.696529 
	C64.385078,15.640581 56.852276,20.628519 50.768707,27.000170 
	C38.406818,39.947433 32.063847,55.899227 31.051031,73.761505 
	C30.007910,92.158287 37.177441,107.798790 48.160133,122.011490 
	C40.055397,135.847443 31.341274,149.368607 23.992601,163.595093 
	C13.667080,183.584579 7.406957,205.042572 3.953977,227.301270 
	C3.466995,230.440475 2.480489,233.502197 1.362596,236.299896 
	C1.000000,157.772552 1.000000,79.545090 1.000000,1.000000 
	C30.353464,1.000000 59.708073,1.000000 89.531342,1.000000 
z"/>
<path fill="#000000" opacity="1.000000" stroke="none" 
	d="
M168.262787,35.072971 
	C158.632355,20.317581 145.690140,9.771879 128.930176,4.040186 
	C127.141335,3.428427 125.455170,2.516440 123.860687,1.371866 
	C182.687561,1.000000 241.375122,1.000000 300.531342,1.000001 
	C300.545319,1.659379 300.200012,2.769144 299.619476,2.910085 
	C291.817596,4.804170 283.982880,6.563184 275.579285,8.679264 
	C265.264282,13.677251 255.526367,18.351686 245.333954,23.017174 
	C218.584198,22.226452 193.123077,26.741926 168.262787,35.072971 
z"/>
<path fill="#FFEA01" opacity="1.000000" stroke="none" 
	d="
M245.788452,23.026119 
	C255.526367,18.351686 265.264282,13.677251 275.376526,9.026009 
	C264.768951,23.014013 256.584991,38.348625 254.115875,56.136902 
	C249.365021,90.363388 256.879517,121.902336 275.529633,150.921158 
	C286.125275,167.407532 301.045898,178.664673 318.156433,187.626511 
	C327.407593,192.471893 337.150024,197.092560 344.983032,203.788879 
	C363.234619,219.391861 367.042023,240.188080 362.483246,262.898560 
	C359.900635,275.764130 356.431854,288.454346 353.947662,301.336456 
	C351.432495,314.379150 356.006561,325.618713 364.715302,335.172791 
	C376.768555,348.396088 392.781677,353.742432 409.734375,356.989044 
	C427.511597,360.393585 445.124390,358.956635 462.863708,355.380005 
	C447.025635,372.424225 427.960419,383.848450 404.655396,388.448456 
	C390.149048,391.264099 375.926514,391.714722 361.748871,389.422577 
	C343.343140,386.446838 326.222015,380.417603 312.845276,366.545410 
	C304.846741,356.038330 300.924805,344.299744 303.234528,331.126801 
	C304.659180,323.001587 306.869080,315.001801 308.973633,307.010834 
	C312.534912,293.488464 315.251648,279.964203 312.240295,265.902252 
	C308.918854,250.392303 300.869141,237.992264 287.394348,229.743256 
	C274.452515,221.820511 260.975891,214.771393 247.307251,206.844666 
	C244.261932,204.076904 241.465668,201.976151 239.054016,199.500702 
	C223.030548,183.053391 212.522263,163.396957 207.245911,141.233887 
	C204.474289,129.591797 202.319351,117.464409 202.414536,105.576408 
	C202.504303,94.366508 205.910248,83.183167 208.036423,71.670547 
	C213.114731,57.406132 220.794205,45.214931 231.585388,35.104206 
	C236.115280,30.859955 241.042084,27.039326 245.788452,23.026119 
z"/>
<path fill="#FF2AAA" opacity="1.000000" stroke="none" 
	d="
M405.048767,388.464691 
	C427.960419,383.848450 447.025635,372.424225 463.299622,355.399200 
	C470.096130,346.456024 476.675751,337.789490 483.544556,328.934387 
	C479.637054,346.466400 473.065094,363.300995 464.839294,379.511383 
	C456.627289,395.694427 446.919281,410.897644 434.925446,424.565338 
	C429.171722,431.122070 423.619171,437.906250 417.381378,443.976898 
	C403.532440,457.454742 388.385132,469.337646 371.258423,479.192047 
	C354.680267,475.246674 338.396759,471.353485 322.251678,466.952454 
	C316.214569,465.306763 310.500061,462.477661 304.625061,459.774689 
	C329.083496,451.529358 351.614044,440.008301 371.503693,423.648376 
	C384.091705,413.294250 395.819733,402.053467 405.048767,388.464691 
z"/>
<path fill="#FE4FB8" opacity="1.000000" stroke="none" 
	d="
M207.857407,71.988136 
	C205.910248,83.183167 202.504303,94.366508 202.414536,105.576408 
	C202.319351,117.464409 204.474289,129.591797 207.245911,141.233887 
	C212.522263,163.396957 223.030548,183.053391 239.054016,199.500702 
	C241.465668,201.976151 244.261932,204.076904 247.012848,206.669449 
	C234.762665,205.875366 222.345398,203.541321 210.003845,203.889603 
	C178.632965,204.774887 150.647476,216.106033 124.842117,234.752808 
	C93.297783,258.586761 76.541832,288.733978 81.065483,328.557373 
	C83.362068,348.775024 92.867775,370.254883 121.381836,373.255157 
	C146.196671,375.866180 162.227127,389.626038 170.593719,412.606415 
	C175.494614,426.067688 177.859085,439.894745 173.083160,454.040222 
	C153.251877,446.651337 135.308685,435.967255 119.072647,422.486938 
	C102.335442,408.590485 87.881104,392.597839 76.413673,374.031555 
	C61.448032,349.801514 51.394489,323.721771 48.077656,295.360565 
	C46.712231,283.685211 45.888699,271.837219 46.182850,260.101959 
	C46.654652,241.279678 50.214935,222.844498 56.189903,204.935959 
	C56.498814,204.010056 57.127937,203.191010 58.162682,202.312592 
	C65.170784,213.708221 76.207275,218.513580 87.582092,214.870850 
	C98.204491,211.469055 104.951149,201.141724 103.968330,189.787888 
	C103.009315,178.709106 93.989090,169.715439 82.344673,168.584686 
	C79.255836,168.284714 76.082367,168.856232 72.947762,169.027603 
	C76.896179,162.485123 80.844597,155.942642 85.326683,149.136993 
	C88.524994,149.790909 91.164612,150.789917 93.858093,151.612579 
	C127.052704,161.751282 158.651627,148.637299 172.318924,119.075600 
	C179.394653,106.630852 182.200256,93.147018 182.517288,78.467499 
	C191.253815,75.984825 199.555618,73.986481 207.857407,71.988136 
z"/>
<path fill="#203597" opacity="1.000000" stroke="none" 
	d="
M173.073425,454.412811 
	C177.859085,439.894745 175.494614,426.067688 170.593719,412.606415 
	C162.227127,389.626038 146.196671,375.866180 121.381836,373.255157 
	C92.867775,370.254883 83.362068,348.775024 81.065483,328.557373 
	C76.541832,288.733978 93.297783,258.586761 124.676949,235.041779 
	C123.101715,241.806473 120.884903,248.621216 119.373291,255.588959 
	C114.725204,277.014282 113.741867,298.359558 121.604942,319.395264 
	C128.570908,338.031006 141.813293,349.327454 161.048889,354.072906 
	C169.263184,356.099426 177.535370,358.237091 185.382126,361.335144 
	C201.319458,367.627441 212.145111,379.757294 219.720261,394.676453 
	C227.032700,409.078186 230.711655,424.532867 231.031754,440.781494 
	C231.520248,465.578766 221.173752,484.696625 201.170059,498.919434 
	C197.808258,501.309692 194.507690,503.786102 191.104004,506.546448 
	C185.811020,505.635559 180.432755,504.853546 175.406906,503.075439 
	C163.681824,498.927216 152.126205,494.300018 140.302048,489.608246 
	C147.123734,484.081757 154.874908,479.527527 160.941406,473.325439 
	C166.006378,468.147247 169.098099,461.038940 173.073425,454.412811 
z"/>
<path fill="#FF4FB8" opacity="1.000000" stroke="none" 
	d="
M404.655396,388.448456 
	C395.819733,402.053467 384.091705,413.294250 371.503693,423.648376 
	C351.614044,440.008301 329.083496,451.529358 304.331238,459.564514 
	C296.652954,454.794800 288.368317,450.738831 282.060059,444.638977 
	C271.986755,434.898468 270.884766,422.492249 277.894867,410.332794 
	C281.357147,404.327240 285.890930,398.897919 290.261902,393.467041 
	C297.462006,384.521057 304.923553,375.785553 312.560089,366.753357 
	C326.222015,380.417603 343.343140,386.446838 361.748871,389.422577 
	C375.926514,391.714722 390.149048,391.264099 404.655396,388.448456 
z"/>
<path fill="#FEF161" opacity="1.000000" stroke="none" 
	d="
M221.104980,249.077637 
	C235.920441,243.133377 249.983673,244.500000 262.176147,254.920090 
	C274.357025,265.330231 276.268127,279.133545 272.700439,294.092163 
	C272.431946,295.217957 271.973663,296.298492 270.920532,297.668884 
	C267.648743,298.500732 265.072327,299.129730 262.469299,299.616180 
	C244.218842,303.026886 225.607208,291.628174 220.503632,274.085602 
	C218.047897,265.644501 219.004745,257.367188 221.104980,249.077637 
z"/>
<path fill="#FDE902" opacity="1.000000" stroke="none" 
	d="
M220.743973,249.104660 
	C219.004745,257.367188 218.047897,265.644501 220.503632,274.085602 
	C225.607208,291.628174 244.218842,303.026886 262.469299,299.616180 
	C265.072327,299.129730 267.648743,298.500732 270.651794,297.912689 
	C265.183563,312.931427 249.414230,321.297089 231.078094,319.101440 
	C214.934799,317.168365 202.187271,304.889923 199.998093,289.165192 
	C197.477386,271.058899 204.594894,257.080933 220.743973,249.104660 
z"/>
<path fill="#203597" opacity="1.000000" stroke="none" 
	d="
M171.903442,119.067337 
	C158.651627,148.637299 127.052704,161.751282 93.858093,151.612579 
	C91.164612,150.789917 88.524994,149.790909 85.484337,148.819870 
	C71.213463,142.333054 59.126987,133.436066 48.485233,122.069489 
	C37.177441,107.798790 30.007910,92.158287 31.051031,73.761505 
	C32.063847,55.899227 38.406818,39.947433 50.768707,27.000170 
	C56.852276,20.628519 64.385078,15.640581 71.617218,9.984291 
	C71.676537,11.223562 71.602242,12.609940 71.052338,13.771070 
	C58.718479,39.814308 61.668854,64.526085 79.153198,86.865303 
	C94.185539,106.071671 113.832558,118.447113 138.576599,122.184105 
	C149.988983,123.907677 160.689362,121.869209 171.903442,119.067337 
z"/>
<path fill="#FFE802" opacity="1.000000" stroke="none" 
	d="
M72.665344,169.216705 
	C76.082367,168.856232 79.255836,168.284714 82.344673,168.584686 
	C93.989090,169.715439 103.009315,178.709106 103.968330,189.787888 
	C104.951149,201.141724 98.204491,211.469055 87.582092,214.870850 
	C76.207275,218.513580 65.170784,213.708221 58.454544,202.087280 
	C54.252800,185.770233 57.896938,177.433395 72.665344,169.216705 
z"/>
<path fill="#FF2BAA" opacity="1.000000" stroke="none" 
	d="
M208.036423,71.670547 
	C199.555618,73.986481 191.253815,75.984825 182.573425,78.011490 
	C181.376831,62.700245 176.533432,48.674206 168.325104,35.399399 
	C193.123077,26.741926 218.584198,22.226452 245.333954,23.017172 
	C241.042084,27.039326 236.115280,30.859955 231.585388,35.104206 
	C220.794205,45.214931 213.114731,57.406132 208.036423,71.670547 
z"/>
</svg>